<svg xmlns="http://www.w3.org/2000/svg" viewBox="0 0 24 30" fill="white" x="0px" y="0px"><path fill-rule="evenodd" clip-rule="evenodd" d="M12 1C12.5523 1 13 1.39175 13 1.875V5.58579L13.2929 5.29289C13.6834 4.90237 14.3166 4.90237 14.7071 5.29289C15.0976 5.68342 15.0976 6.31658 14.7071 6.70711L12.7071 8.70711C12.3166 9.09763 11.6834 9.09763 11.2929 8.70711L9.29289 6.70711C8.90237 6.31658 8.90237 5.68342 9.29289 5.29289C9.68342 4.90237 10.3166 4.90237 10.7071 5.29289L11 5.58579V1.875C11 1.39175 11.4477 1 12 1ZM2 10.5C2 9.67157 2.67157 9 3.5 9H7C7.55228 9 8 8.55228 8 8C8 7.44772 7.55228 7 7 7H3.5C1.567 7 0 8.567 0 10.5V19.5C0 21.433 1.567 23 3.5 23H20.5C22.433 23 24 21.433 24 19.5V10.5C24 8.567 22.433 7 20.5 7H17C16.4477 7 16 7.44772 16 8C16 8.55228 16.4477 9 17 9H20.5C21.3284 9 22 9.67157 22 10.5V19.5C22 20.3284 21.3284 21 20.5 21H3.5C2.67157 21 2 20.3284 2 19.5V10.5ZM10 15C10 13.8954 10.8954 13 12 13C13.1046 13 14 13.8954 14 15C14 16.1046 13.1046 17 12 17C10.8954 17 10 16.1046 10 15ZM12 11C9.79086 11 8 12.7909 8 15C8 17.2091 9.79086 19 12 19C14.2091 19 16 17.2091 16 15C16 12.7909 14.2091 11 12 11ZM5 12C5.55228 12 6 12.4477 6 13V17C6 17.5523 5.55228 18 5 18C4.44772 18 4 17.5523 4 17V13C4 12.4477 4.44772 12 5 12ZM20 13C20 12.4477 19.5523 12 19 12C18.4477 12 18 12.4477 18 13V17C18 17.5523 18.4477 18 19 18C19.5523 18 20 17.5523 20 17V13Z" fill="white"/><text x="0" y="39" fill="#000000" font-size="5px" font-weight="bold" font-family="'Helvetica Neue', Helvetica, Arial-Unicode, Arial, Sans-serif">Created by Christian Antonius</text><text x="0" y="44" fill="#fff" font-size="5px" font-weight="bold" font-family="'Helvetica Neue', Helvetica, Arial-Unicode, Arial, Sans-serif">from the Noun Project</text></svg>